<?xml version="1.0" encoding="UTF-8" standalone="no"?>
<!-- Created with Inkscape (http://www.inkscape.org/) -->
<svg
   xmlns:dc="http://purl.org/dc/elements/1.1/"
   xmlns:cc="http://web.resource.org/cc/"
   xmlns:rdf="http://www.w3.org/1999/02/22-rdf-syntax-ns#"
   xmlns:svg="http://www.w3.org/2000/svg"
   xmlns="http://www.w3.org/2000/svg"
   xmlns:sodipodi="http://sodipodi.sourceforge.net/DTD/sodipodi-0.dtd"
   xmlns:inkscape="http://www.inkscape.org/namespaces/inkscape"
   width="228.22037"
   height="51.580276"
   id="svg2"
   sodipodi:version="0.32"
   inkscape:version="0.44.1"
   sodipodi:docbase="/home/alex"
   sodipodi:docname="bongo.svg"
   inkscape:export-filename="/home/alex/bongo-small.png"
   inkscape:export-xdpi="80.263168"
   inkscape:export-ydpi="80.263168"
   version="1.0">
  <defs
     id="defs4" />
  <sodipodi:namedview
     id="base"
     pagecolor="#ffffff"
     bordercolor="#666666"
     borderopacity="1.0"
     gridtolerance="10000"
     guidetolerance="10"
     objecttolerance="10"
     inkscape:pageopacity="0.0"
     inkscape:pageshadow="2"
     inkscape:zoom="1.979899"
     inkscape:cx="165.20223"
     inkscape:cy="26.314235"
     inkscape:document-units="px"
     inkscape:current-layer="layer1"
     inkscape:window-width="914"
     inkscape:window-height="629"
     inkscape:window-x="25"
     inkscape:window-y="108" />
  <metadata
     id="metadata7">
    <rdf:RDF>
      <cc:Work
         rdf:about="">
        <dc:format>image/svg+xml</dc:format>
        <dc:type
           rdf:resource="http://purl.org/dc/dcmitype/StillImage" />
      </cc:Work>
    </rdf:RDF>
  </metadata>
  <g
     inkscape:label="Layer 1"
     inkscape:groupmode="layer"
     id="layer1"
     transform="translate(-139.58877,-325.30757)">
    <path
       style="font-size:36px;font-style:normal;font-weight:normal;fill:#000000;fill-opacity:1;stroke:none;stroke-width:1px;stroke-linecap:butt;stroke-linejoin:miter;stroke-opacity:1;font-family:Trebuchet MS"
       d="M 163.6875,343.53125 C 162.30468,343.53127 160.0664,343.59768 156.9375,343.75 L 156.9375,369.5 L 164.28125,369.5 C 166.95311,369.5 169.09764,368.81641 170.75,367.46875 C 172.41404,366.1211 173.24998,364.32422 173.25,362.0625 C 173.24998,360.10548 172.78123,358.57423 171.84375,357.4375 C 170.91795,356.3008 169.44529,355.49221 167.40625,355 C 168.48436,354.75393 169.45311,354.10939 170.34375,353.125 C 171.23436,352.14064 171.68748,351.07033 171.6875,349.875 C 171.68748,347.83596 170.98827,346.27737 169.59375,345.1875 C 168.19921,344.08596 166.23046,343.53127 163.6875,343.53125 z M 163.59375,346.4375 C 166.65234,346.43752 168.18749,347.62112 168.1875,350 C 168.18749,352.70705 166.51561,354.06252 163.1875,354.0625 C 162.09765,354.06252 161.17577,354.03908 160.4375,353.96875 L 160.4375,346.5625 C 161.36327,346.48049 162.42187,346.43752 163.59375,346.4375 z M 163.28125,356.59375 C 165.54295,356.59376 167.1328,357.01564 168.09375,357.8125 C 169.06639,358.60939 169.56248,359.82423 169.5625,361.5 C 169.56248,363.30469 169.05077,364.63672 168.03125,365.46875 C 167.02342,366.28906 165.42187,366.6875 163.21875,366.6875 C 162.57421,366.6875 161.64452,366.64844 160.4375,366.53125 L 160.4375,356.6875 L 163.28125,356.59375 z "
       id="path5169" />
    <path
       style="font-size:36px;font-style:normal;font-weight:normal;fill:#000000;fill-opacity:1;stroke:none;stroke-width:1px;stroke-linecap:butt;stroke-linejoin:miter;stroke-opacity:1;font-family:Trebuchet MS"
       d="M 184.34375,350.3125 C 181.78905,350.31252 179.72656,351.2383 178.15625,353.03125 C 176.59765,354.81252 175.8125,357.15627 175.8125,360.0625 C 175.8125,363.06251 176.5625,365.41797 178.0625,367.1875 C 179.56249,368.95703 181.66015,369.84375 184.34375,369.84375 C 186.96874,369.84375 189.03904,368.99609 190.5625,367.25 C 192.08592,365.49219 192.84373,363.09767 192.84375,360.0625 C 192.84373,357.01564 192.11326,354.6172 190.625,352.90625 C 189.1367,351.18361 187.03905,350.31252 184.34375,350.3125 z M 184.34375,353.0625 C 187.67186,353.06252 189.34373,355.39846 189.34375,360.0625 C 189.34373,362.25392 188.89061,363.95313 188,365.21875 C 187.12108,366.48438 185.90233,367.125 184.34375,367.125 C 181.0039,367.125 179.34375,364.78517 179.34375,360.0625 C 179.34375,357.88283 179.78515,356.14845 180.6875,354.90625 C 181.60155,353.66408 182.8203,353.06252 184.34375,353.0625 z "
       id="path5163" />
    <path
       style="font-size:36px;font-style:normal;font-weight:normal;fill:#000000;fill-opacity:1;stroke:none;stroke-width:1px;stroke-linecap:butt;stroke-linejoin:miter;stroke-opacity:1;font-family:Trebuchet MS"
       d="M 207.9693,369.50504 L 207.9693,358.55386 C 207.96929,356.54997 207.6646,355.14958 207.05524,354.35269 C 206.45757,353.54411 205.44976,353.13982 204.0318,353.1398 C 203.27007,353.13982 202.4732,353.36833 201.64117,353.82535 C 200.80914,354.28239 200.17047,354.84489 199.72516,355.51285 L 199.72516,369.50504 L 196.38531,369.50504 L 196.38531,350.67886 L 198.67047,350.67886 L 199.72516,353.10464 C 200.82671,351.2531 202.62554,350.32732 205.12164,350.3273 C 209.24663,350.32732 211.30913,352.83513 211.30914,357.85074 L 211.30914,369.50504 L 207.9693,369.50504"
       id="path5159" />
    <path
       style="font-size:36px;font-style:normal;font-weight:normal;fill:#000000;fill-opacity:1;stroke:none;stroke-width:1px;stroke-linecap:butt;stroke-linejoin:miter;stroke-opacity:1;font-family:Trebuchet MS"
       d="M 228.25,349.46875 L 226.59375,351.46875 C 225.55077,350.70705 224.10155,350.31252 222.25,350.3125 C 220.23437,350.31252 218.52734,350.96877 217.15625,352.28125 C 215.78515,353.59377 215.09375,355.25001 215.09375,357.21875 C 215.09375,360.28907 216.44531,362.44532 219.09375,363.6875 C 218.16797,363.91016 217.38281,364.27735 216.75,364.78125 C 216.12891,365.28516 215.8125,365.84766 215.8125,366.46875 C 215.8125,368.48438 217.14062,369.5 219.8125,369.5 C 220.36327,369.5 221.14062,369.40625 222.125,369.21875 C 223.10937,369.03125 223.78124,368.9375 224.15625,368.9375 C 226.35936,368.9375 227.46874,369.69532 227.46875,371.21875 C 227.46874,371.99219 227.03514,372.64062 226.15625,373.15625 C 225.28905,373.68359 224.07421,373.9375 222.5625,373.9375 C 220.92187,373.9375 219.13281,373.26953 217.1875,371.96875 L 215.375,374.65625 C 216.19531,375.27733 217.27734,375.8164 218.625,376.25 C 219.97265,376.68358 221.28124,376.87499 222.5,376.875 C 224.8789,376.87499 226.82811,376.34765 228.375,375.28125 C 229.93358,374.21484 230.71874,372.82812 230.71875,371.09375 C 230.71874,369.52343 230.1992,368.28516 229.15625,367.40625 C 228.12499,366.51563 226.66405,366.0625 224.8125,366.0625 C 224.29687,366.0625 223.53515,366.15625 222.46875,366.34375 C 221.40234,366.51954 220.59764,366.62501 220.09375,366.625 C 218.9453,366.62501 218.37499,366.38672 218.375,365.90625 C 218.37499,365.55469 218.63671,365.27344 219.1875,365.0625 C 219.73828,364.83985 220.20312,364.69141 220.53125,364.65625 L 223.28125,364.375 C 225.20311,364.18751 226.75389,363.47657 227.9375,362.1875 C 229.12108,360.89844 229.71873,359.30469 229.71875,357.40625 C 229.71873,355.61329 229.29295,354.14455 228.4375,353.03125 L 230.4375,351.53125 L 228.25,349.46875 z M 222.46875,353.03125 C 223.54687,353.03127 224.44139,353.42971 225.15625,354.25 C 225.8828,355.07033 226.24999,356.07814 226.25,357.25 C 226.24999,358.60939 225.91795,359.68751 225.25,360.53125 C 224.58202,361.36329 223.65234,361.78126 222.46875,361.78125 C 221.26171,361.78126 220.30859,361.35547 219.59375,360.5 C 218.89062,359.63282 218.53125,358.56252 218.53125,357.25 C 218.53125,356.07814 218.89843,355.07033 219.625,354.25 C 220.36327,353.42971 221.30859,353.03127 222.46875,353.03125 z "
       id="path5157" />
    <path
       style="font-size:36px;font-style:normal;font-weight:normal;fill:#000000;fill-opacity:1;stroke:none;stroke-width:1px;stroke-linecap:butt;stroke-linejoin:miter;stroke-opacity:1;font-family:Trebuchet MS"
       d="M 241.4375,350.3125 C 238.8828,350.31252 236.82031,351.2383 235.25,353.03125 C 233.6914,354.81252 232.90625,357.15627 232.90625,360.0625 C 232.90625,363.06251 233.65625,365.41797 235.15625,367.1875 C 236.65624,368.95703 238.7539,369.84375 241.4375,369.84375 C 244.06249,369.84375 246.13279,368.99609 247.65625,367.25 C 249.17967,365.49219 249.93748,363.09767 249.9375,360.0625 C 249.93748,357.01564 249.20701,354.6172 247.71875,352.90625 C 246.23045,351.18361 244.1328,350.31252 241.4375,350.3125 z M 241.4375,353.0625 C 244.76561,353.06252 246.43748,355.39846 246.4375,360.0625 C 246.43748,362.25392 245.98436,363.95313 245.09375,365.21875 C 244.21483,366.48438 242.99608,367.125 241.4375,367.125 C 238.09765,367.125 236.4375,364.78517 236.4375,360.0625 C 236.4375,357.88283 236.8789,356.14845 237.78125,354.90625 C 238.6953,353.66408 239.91405,353.06252 241.4375,353.0625 z "
       id="path5153" />
    <path
       style="font-size:36px;font-style:normal;font-weight:normal;fill:#edd400;fill-opacity:1;stroke:none;stroke-width:1px;stroke-linecap:butt;stroke-linejoin:miter;stroke-opacity:1;font-family:Trebuchet MS"
       d="M 259.375,343.5625 C 258.82421,343.56253 257.22265,343.63284 254.5625,343.75 L 254.5625,369.5 L 258.09375,369.5 L 258.09375,359.59375 C 259.42968,359.71095 260.28905,359.78126 260.6875,359.78125 C 267.29686,359.78126 270.59373,356.88283 270.59375,351.09375 C 270.59373,346.08987 266.85155,343.56253 259.375,343.5625 z M 260,346.75 C 264.65233,346.75003 266.96873,348.2969 266.96875,351.4375 C 266.96873,354.87111 264.79686,356.59376 260.4375,356.59375 C 260.35546,356.59376 259.58202,356.5547 258.09375,356.4375 L 258.09375,346.90625 C 258.90233,346.78909 259.53124,346.75003 260,346.75 z "
       id="path5149" />
    <path
       style="font-size:36px;font-style:normal;font-weight:normal;fill:#edd400;fill-opacity:1;stroke:none;stroke-width:1px;stroke-linecap:butt;stroke-linejoin:miter;stroke-opacity:1;font-family:Trebuchet MS"
       d="M 282.95953,353.89566 C 282.23296,353.39177 281.50054,353.13982 280.76227,353.1398 C 279.57867,353.13982 278.54156,353.68474 277.65094,354.77457 C 276.77203,355.86442 276.33257,357.17692 276.33258,358.71207 L 276.33258,369.50504 L 272.99274,369.50504 L 272.99274,350.67886 L 276.33258,350.67886 L 276.33258,353.68472 C 277.55132,351.44646 279.36187,350.32732 281.76422,350.3273 C 282.36187,350.32732 283.22319,350.43279 284.34821,350.64371 L 282.95953,353.89566"
       id="path5145" />
    <path
       style="font-size:36px;font-style:normal;font-weight:normal;fill:#edd400;fill-opacity:1;stroke:none;stroke-width:1px;stroke-linecap:butt;stroke-linejoin:miter;stroke-opacity:1;font-family:Trebuchet MS"
       d="M 294.03125,350.3125 C 291.47656,350.31252 289.41406,351.2383 287.84375,353.03125 C 286.28516,354.81252 285.5,357.15627 285.5,360.0625 C 285.5,363.06251 286.25,365.41797 287.75,367.1875 C 289.25,368.95703 291.34765,369.84375 294.03125,369.84375 C 296.65624,369.84375 298.72655,368.99609 300.25,367.25 C 301.77342,365.49219 302.53123,363.09767 302.53125,360.0625 C 302.53123,357.01564 301.76952,354.6172 300.28125,352.90625 C 298.79296,351.18361 296.72655,350.31252 294.03125,350.3125 z M 294.03125,353.0625 C 297.35937,353.06252 298.99999,355.39846 299,360.0625 C 298.99999,362.25392 298.57812,363.95313 297.6875,365.21875 C 296.80859,366.48438 295.58984,367.125 294.03125,367.125 C 290.6914,367.125 288.99999,364.78517 289,360.0625 C 288.99999,357.88283 289.47266,356.14845 290.375,354.90625 C 291.28906,353.66408 292.50781,353.06252 294.03125,353.0625 z "
       id="path5143" />
    <path
       style="font-size:36px;font-style:normal;font-weight:normal;fill:#edd400;fill-opacity:1;stroke:none;stroke-width:1px;stroke-linecap:butt;stroke-linejoin:miter;stroke-opacity:1;font-family:Trebuchet MS"
       d="M 311.20758,343.55972 C 311.78179,343.55975 312.26812,343.76483 312.66656,344.17496 C 313.07671,344.57342 313.28179,345.05389 313.2818,345.61636 C 313.28179,346.19061 313.07671,346.68279 312.66656,347.09293 C 312.26812,347.49139 311.78179,347.6906 311.20758,347.69058 C 310.63335,347.6906 310.14703,347.49139 309.7486,347.09293 C 309.35015,346.68279 309.15093,346.19061 309.15094,345.61636 C 309.15093,345.04217 309.35015,344.55584 309.7486,344.15738 C 310.14703,343.75897 310.63335,343.55975 311.20758,343.55972"
       id="path5139" />
    <path
       style="font-size:36px;font-style:normal;font-weight:normal;fill:#edd400;fill-opacity:1;stroke:none;stroke-width:1px;stroke-linecap:butt;stroke-linejoin:miter;stroke-opacity:1;font-family:Trebuchet MS"
       d="M 302.00055,376.88785 L 302.00055,373.89957 C 304.29742,373.89956 305.86773,373.548 306.71149,372.84488 C 307.56695,372.15347 307.99468,371.01089 307.99469,369.41714 L 307.99469,353.49136 L 304.25055,353.49136 L 304.25055,350.67886 L 311.33453,350.67886 L 311.33453,369.34683 C 311.33452,371.93667 310.57281,373.84097 309.04938,375.05972 C 307.52593,376.27847 305.17633,376.88784 302.00055,376.88785"
       id="path5137" />
    <path
       style="font-size:36px;font-style:normal;font-weight:normal;fill:#edd400;fill-opacity:1;stroke:none;stroke-width:1px;stroke-linecap:butt;stroke-linejoin:miter;stroke-opacity:1;font-family:Trebuchet MS"
       d="M 324.875,350.3125 C 322.5664,350.31252 320.56249,351.16799 318.875,352.84375 C 316.98828,354.71877 316.03125,357.20704 316.03125,360.3125 C 316.03125,363.30078 316.97265,365.66798 318.8125,367.4375 C 320.46484,369.04297 322.47656,369.84375 324.84375,369.84375 C 326.48437,369.84375 327.97655,369.61718 329.3125,369.125 C 330.37889,368.75 331.17186,368.29688 331.6875,367.78125 L 330.28125,365.375 C 329.0039,366.48828 327.41015,367.03125 325.5,367.03125 C 323.82421,367.03125 322.4414,366.53126 321.375,365.5 C 320.16797,364.31641 319.56249,362.60939 319.5625,360.40625 L 333.125,360.40625 C 333.30076,359.78517 333.40623,359.11329 333.40625,358.375 C 333.40623,355.97267 332.66404,354.04689 331.1875,352.59375 C 329.66404,351.08205 327.55858,350.31252 324.875,350.3125 z M 325.03125,353.125 C 326.62499,353.12502 327.88671,353.64064 328.8125,354.625 C 329.65624,355.52736 330.06249,356.65236 330.0625,358 L 319.65625,358 C 319.78515,356.64064 320.32031,355.50782 321.28125,354.59375 C 322.28906,353.63283 323.54296,353.12502 325.03125,353.125 z "
       id="path5135" />
    <path
       style="font-size:36px;font-style:normal;font-weight:normal;fill:#edd400;fill-opacity:1;stroke:none;stroke-width:1px;stroke-linecap:butt;stroke-linejoin:miter;stroke-opacity:1;font-family:Trebuchet MS"
       d="M 351.09625,352.20816 L 349.44391,354.56363 C 349.10405,354.2238 348.50054,353.90154 347.63336,353.59683 C 346.77788,353.29216 345.93413,353.13982 345.10211,353.1398 C 343.2857,353.13982 341.84429,353.77849 340.77789,355.05582 C 339.71148,356.32145 339.17828,358.06169 339.17828,360.27652 C 339.17828,362.47965 339.7232,364.16129 340.81305,365.32144 C 341.90289,366.46988 343.4146,367.0441 345.34821,367.0441 C 346.84819,367.0441 348.35991,366.46402 349.88336,365.30386 L 351.20172,368.11636 C 349.40874,369.27652 347.18804,369.8566 344.53961,369.8566 C 341.9732,369.8566 339.85211,368.99527 338.17633,367.27261 C 336.50055,365.54996 335.66266,363.21793 335.66266,360.27652 C 335.66266,357.27653 336.52984,354.86833 338.26422,353.05191 C 340.01031,351.23552 342.39507,350.32732 345.41852,350.3273 C 346.39116,350.32732 347.44585,350.5324 348.58258,350.94254 C 349.71928,351.35271 350.55717,351.77458 351.09625,352.20816"
       id="path5131" />
    <path
       style="font-size:36px;font-style:normal;font-weight:normal;fill:#edd400;fill-opacity:1;stroke:none;stroke-width:1px;stroke-linecap:butt;stroke-linejoin:miter;stroke-opacity:1;font-family:Trebuchet MS"
       d="M 355.94781,353.31558 L 353.76813,353.31558 L 353.76813,350.67886 L 355.94781,350.67886 L 355.94781,346.74136 L 359.28766,345.45816 L 359.28766,350.67886 L 364.45563,350.67886 L 364.45563,353.31558 L 359.28766,353.31558 L 359.28766,362.66714 C 359.28765,364.24918 359.55132,365.37418 360.07867,366.04214 C 360.61773,366.71012 361.47906,367.0441 362.66266,367.0441 C 363.51812,367.0441 364.40288,366.8273 365.31696,366.39371 L 365.80914,369.32925 C 364.42632,369.68082 362.90874,369.8566 361.25641,369.8566 C 359.76812,369.8566 358.50836,369.30582 357.47711,368.20425 C 356.45758,367.09098 355.94781,365.69059 355.94781,364.00308 L 355.94781,353.31558"
       id="text2160" />
    <path
       sodipodi:type="arc"
       style="fill:#e98a03;fill-opacity:1;stroke:none;stroke-width:2;stroke-miterlimit:4;stroke-dasharray:none;stroke-opacity:1"
       id="path3134"
       sodipodi:cx="140.66374"
       sodipodi:cy="338.43686"
       sodipodi:rx="5.8083773"
       sodipodi:ry="15.909903"
       d="M 146.47212 338.43686 A 5.8083773 15.909903 0 1 1  134.85536,338.43686 A 5.8083773 15.909903 0 1 1  146.47212 338.43686 z"
       transform="matrix(0.4642958,0,0,0.4070661,94.009873,196.37755)" />
    <path
       sodipodi:type="arc"
       style="fill:#e98a03;fill-opacity:1;stroke:none;stroke-width:2;stroke-miterlimit:4;stroke-dasharray:none;stroke-opacity:1"
       id="path4105"
       sodipodi:cx="140.66374"
       sodipodi:cy="338.43686"
       sodipodi:rx="5.8083773"
       sodipodi:ry="15.909903"
       d="M 146.47212 338.43686 A 5.8083773 15.909903 0 1 1  134.85536,338.43686 A 5.8083773 15.909903 0 1 1  146.47212 338.43686 z"
       transform="matrix(0.4769432,-0.2764132,0.3060155,0.5280212,-20.163117,194.04122)" />
    <path
       sodipodi:type="arc"
       style="fill:#e98a03;fill-opacity:1;stroke:none;stroke-width:2;stroke-miterlimit:4;stroke-dasharray:none;stroke-opacity:1"
       id="path4107"
       sodipodi:cx="140.66374"
       sodipodi:cy="338.43686"
       sodipodi:rx="5.8083773"
       sodipodi:ry="15.909903"
       d="M 146.47212 338.43686 A 5.8083773 15.909903 0 1 1  134.85536,338.43686 A 5.8083773 15.909903 0 1 1  146.47212 338.43686 z"
       transform="matrix(-8.8687181e-2,-0.4557468,0.3995709,-7.7755484e-2,23.212594,439.21331)"
       inkscape:transform-center-x="-30.809653"
       inkscape:transform-center-y="-13.637059" />
    <path
       sodipodi:type="arc"
       style="fill:#e97300;fill-opacity:1;stroke:none;stroke-width:2;stroke-miterlimit:4;stroke-dasharray:none;stroke-opacity:1"
       id="path4109"
       sodipodi:cx="140.66374"
       sodipodi:cy="338.43686"
       sodipodi:rx="5.8083773"
       sodipodi:ry="15.909903"
       d="M 146.47212 338.43686 A 5.8083773 15.909903 0 1 1  134.85536,338.43686 A 5.8083773 15.909903 0 1 1  146.47212 338.43686 z"
       transform="matrix(0.2149789,-0.3362262,0.3430633,0.2191125,0.153512,313.90402)" />
  </g>
</svg>
